<?xml version="1.0" encoding="utf-8"?>
<!-- Generator: Adobe Illustrator 23.0.2, SVG Export Plug-In . SVG Version: 6.00 Build 0)  -->
<svg version="1.1" id="Layer_1" xmlns="http://www.w3.org/2000/svg" xmlns:xlink="http://www.w3.org/1999/xlink" x="0px" y="0px"
	 viewBox="0 0 613.5 800" style="enable-background:new 0 0 613.5 800;" xml:space="preserve">
<style type="text/css">
	.st0{stroke:#231F20;stroke-miterlimit:10;}
</style>
<path class="st0" d="M310,11.9l-3.2-0.3L0,43.7v562.3l306.8,182.5l306.8-182.5V43.7L310,11.9z M573.4,583.1L306.8,741.8L40.1,583.1
	V352.7l265.5,158l0.4,28.6L123.9,430.9l-0.3,27.8l182.9,109.9L307,598L124.2,489.3l-0.3,27.8L306.8,627l184.6-110.5v-27.9l-0.2,0.1
	v-9.5v-11.5v-69.8l82.3-49.1V583.1z M573.2,318.9l-72.9,43l-33.7,19.8L306,286.2l-0.3,27.8L443,395.6l-1.2,0.7l-3,1.7l-19.5,11.5
	L306,342.1l-0.3,27.8l89.4,53.2l-21.1,14.1l-0.5,0.3L306,397.8l-0.3,27.8l44.3,26.1l-45.2,27.1l-264.2-157l264.6-159v0L573.2,318.9z
	 M573.4,290.9l-268.1-158v0l0,0l0,0v0L40.1,290.7V79.8l266.6-28l266.6,28V290.9z"/>
</svg>
